HIERARCHY
ROOT Hips
{
  OFFSET 14.9337 39.7791 -6.93208
  CHANNELS 6 Xposition Yposition Zposition Zrotation Xrotation Yrotation
  JOINT LeftHip
  {
    OFFSET 3.43 0 0
    CHANNELS 6 Xposition Yposition Zposition Zrotation Xrotation Yrotation
    JOINT LeftKnee
    {
      OFFSET 0 -18.47 0
      CHANNELS 6 Xposition Yposition Zposition Zrotation Xrotation Yrotation
      JOINT LeftAnkle
      {
        OFFSET 0 -17.95 0
        CHANNELS 6 Xposition Yposition Zposition Zrotation Xrotation Yrotation
        End Site
        {
          OFFSET 0 -3.12 0
        }
      }
    }
  }
  JOINT RightHip
  {
    OFFSET -3.43 0 0
    CHANNELS 6 Xposition Yposition Zposition Zrotation Xrotation Yrotation
    JOINT RightKnee
    {
      OFFSET 0 -18.47 0
      CHANNELS 6 Xposition Yposition Zposition Zrotation Xrotation Yrotation
      JOINT RightAnkle
      {
        OFFSET 0 -17.95 0
        CHANNELS 6 Xposition Yposition Zposition Zrotation Xrotation Yrotation
        End Site
        {
          OFFSET 0 -3.12 0
        }
      }
    }
  }
  JOINT Chest
  {
    OFFSET 0 4.57 0
    CHANNELS 6 Xposition Yposition Zposition Zrotation Xrotation Yrotation
    JOINT CS_BVH
    {
      OFFSET 0 6.57 0
      CHANNELS 6 Xposition Yposition Zposition Zrotation Xrotation Yrotation
      JOINT LeftCollar
      {
        OFFSET 1.06 4.19 1.76
        CHANNELS 6 Xposition Yposition Zposition Zrotation Xrotation Yrotation
        JOINT LeftShoulder
        {
          OFFSET 5.81 0 0
          CHANNELS 6 Xposition Yposition Zposition Zrotation Xrotation Yrotation
          JOINT LeftElbow
          {
            OFFSET 0 -12.08 0
            CHANNELS 6 Xposition Yposition Zposition Zrotation Xrotation Yrotation
            JOINT LeftWrist
            {
              OFFSET 0 -9.82 0
              CHANNELS 6 Xposition Yposition Zposition Zrotation Xrotation Yrotation
              End Site
              {
                OFFSET 0 -7.37 0
              }
            }
          }
        }
      }
      JOINT RightCollar
      {
        OFFSET -1.06 4.19 1.76
        CHANNELS 6 Xposition Yposition Zposition Zrotation Xrotation Yrotation
        JOINT RightShoulder
        {
          OFFSET -6.06 0 0
          CHANNELS 6 Xposition Yposition Zposition Zrotation Xrotation Yrotation
          JOINT RightElbow
          {
            OFFSET 0 -11.08 0
            CHANNELS 6 Xposition Yposition Zposition Zrotation Xrotation Yrotation
            JOINT RightWrist
            {
              OFFSET 0 -9.82 0
              CHANNELS 6 Xposition Yposition Zposition Zrotation Xrotation Yrotation
              End Site
              {
                OFFSET 0 -7.14001 0
              }
            }
          }
        }
      }
      JOINT Neck
      {
        OFFSET 0 4.05 0
        CHANNELS 6 Xposition Yposition Zposition Zrotation Xrotation Yrotation
        JOINT Head
        {
          OFFSET 0 5.19 0
          CHANNELS 6 Xposition Yposition Zposition Zrotation Xrotation Yrotation
          End Site
          {
            OFFSET 0 4.14001 0
          }
        }
      }
    }
  }
}
MOTION
Frames:	4
Frame Time:	0.0333333
2.57873 38.3745 11.1801 -4.96424 -6.45196 -52.427 3.43 9.12756e-010 -1.60032e-011 -2.7685 -19.2171 -1.46701 1.57372e-008 -18.47 1.10541e-007 -4.16991 54.1591 0.240368 1.5558e-008 -17.95 3.38894e-008 0.0872553 -11.1727 -0.302276 -3.43 -9.12749e-010 1.60023e-011 4.75732 -1.71553 6.09271 4.27853e-008 -18.47 -1.42709e-007 -1.8548 27.2701 1.25622 -2.59563e-008 -17.95 2.98131e-008 0.664098 -9.57254 0.276204 -1.05168e-009 4.57 4.29798e-011 -2.013 13.0249 2.11819 -1.67976e-009 6.57 2.67812e-010 2.17853 2.89819 1.16772 1.06 4.19 1.76 -15.4149 0.158487 0.0972701 5.81 -5.77685e-010 -2.42139e-010 38.8345 33.5854 -150.872 -4.70036e-009 -12.08 6.73172e-010 97.156 5.09364 32.0476 -1.10605e-009 -9.82 -1.29618e-009 2.04282e-010 4.54489e-010 3.27372e-010 -1.06 4.19 1.76 14.2386 -0.580021 -6.8295 -6.06 -5.89036e-008 -4.70616e-010 -31.5602 -11.9435 37.1129 -7.10448e-009 -11.08 -5.62306e-011 -1.89627 -36.1671 11.9606 -1.10928e-009 -9.82 1.29577e-009 11.5429 1.54835 -14.8387 4.66962e-010 4.05 1.19922e-010 -4.05114 -15.995 6.51183 3.38399e-009 5.19 -2.27068e-010 -1.01361 8.61252 6.01067 
2.34302 38.2895 11.5803 -5.00293 -5.75031 -54.9632 3.43 9.12756e-010 -1.60032e-011 -2.78061 -18.9685 -3.36034 1.57372e-008 -18.47 1.10541e-007 -1.71088 48.3784 -0.801728 1.5558e-008 -17.95 3.38894e-008 -0.0330615 -11.1877 -0.302495 -3.43 -9.12749e-010 1.60023e-011 4.59946 -2.00693 6.09791 4.27853e-008 -18.47 -1.42709e-007 -2.34485 28.0294 1.42329 -2.59563e-008 -17.95 2.98131e-008 0.614789 -9.92992 0.276108 -1.05168e-009 4.57 4.29798e-011 -0.969406 12.7129 2.02673 -1.67976e-009 6.57 2.67812e-010 1.37649 2.63634 1.41688 1.06 4.19 1.76 -14.9569 0.157363 0.0929891 5.81 -5.77685e-010 -2.42139e-010 38.061 34.1972 -149.598 -4.70036e-009 -12.08 6.73172e-010 97.5225 4.25262 29.4669 -1.10605e-009 -9.82 -1.29618e-009 2.04282e-010 4.54489e-010 3.27372e-010 -1.06 4.19 1.76 13.9641 -0.560248 -6.77473 -6.06 -5.89036e-008 -4.70616e-010 -31.1612 -13.3597 39.0006 -7.10448e-009 -11.08 -5.62306e-011 -2.76309 -38.8016 11.2223 -1.10928e-009 -9.82 1.29577e-009 11.0858 1.64554 -13.5298 4.66962e-010 4.05 1.19922e-010 -5.5409 -15.7359 2.15634 3.38399e-009 5.19 -2.27068e-010 -0.161639 7.04105 1.45705 
2.08454 38.191 12.0047 -5.25608 -4.89406 -57.5512 3.43 9.12756e-010 -1.60032e-011 -2.18685 -18.1633 -4.7169 1.57372e-008 -18.47 1.10541e-007 0.510876 42.0207 -1.44914 1.5558e-008 -17.95 3.38894e-008 -0.153497 -11.0284 -0.302675 -3.43 -9.12749e-010 1.60023e-011 4.66843 -2.16185 6.09878 4.27853e-008 -18.47 -1.42709e-007 -2.8779 28.823 1.6475 -2.59563e-008 -17.95 2.98131e-008 0.572526 -10.3604 0.27615 -1.05168e-009 4.57 4.29798e-011 -0.118114 12.6071 1.77908 -1.67976e-009 6.57 2.67812e-010 1.2495 2.22243 1.32889 1.06 4.19 1.76 -14.9965 0.157331 0.0766108 5.81 -5.77685e-010 -2.42139e-010 37.4525 34.9465 -148.114 -4.70036e-009 -12.08 6.73172e-010 97.8114 3.14507 26.2375 -1.10605e-009 -9.82 -1.29618e-009 2.04282e-010 4.54489e-010 3.27372e-010 -1.06 4.19 1.76 13.5285 -0.519177 -6.60445 -6.06 -5.89036e-008 -4.70616e-010 -30.7311 -14.7168 40.2684 -7.10448e-009 -11.08 -5.62306e-011 -3.30945 -40.4036 10.8636 -1.10928e-009 -9.82 1.29577e-009 10.9363 1.75461 -12.5264 4.66962e-010 4.05 1.19922e-010 -7.26294 -15.0171 -2.68666 3.38399e-009 5.19 -2.27068e-010 0.924984 4.96782 -3.7038 
1.79982 38.1059 12.4525 -5.64627 -4.07371 -60.2195 3.43 9.12756e-010 -1.60032e-011 -1.24966 -17.1137 -5.34354 1.57372e-008 -18.47 1.10541e-007 2.22084 36.1895 -1.69533 1.5558e-008 -17.95 3.38894e-008 -0.243696 -10.8322 -0.302938 -3.43 -9.12749e-010 1.60023e-011 4.70872 -2.02138 6.09099 4.27853e-008 -18.47 -1.42709e-007 -3.41843 29.4337 1.90072 -2.59563e-008 -17.95 2.98131e-008 0.543546 -10.7195 0.276205 -1.05168e-009 4.57 4.29798e-011 0.27905 12.536 1.45486 -1.67976e-009 6.57 2.67812e-010 1.69974 1.95984 0.968682 1.06 4.19 1.76 -15.271 0.165383 0.0270521 5.81 -5.77685e-010 -2.42139e-010 36.952 35.6872 -146.733 -4.70036e-009 -12.08 6.73172e-010 98.0143 2.09547 23.1116 -1.10605e-009 -9.82 -1.29618e-009 2.04282e-010 4.54489e-010 3.27372e-010 -1.06 4.19 1.76 12.9692 -0.472347 -6.42294 -6.06 -5.89036e-008 -4.70616e-010 -30.1997 -15.9764 40.8426 -7.10448e-009 -11.08 -5.62306e-011 -3.4679 -40.9405 10.8509 -1.10928e-009 -9.82 1.29577e-009 10.3193 1.69505 -12.0168 4.66962e-010 4.05 1.19922e-010 -8.83489 -13.9148 -7.61414 3.38399e-009 5.19 -2.27068e-010 2.06255 2.82925 -8.99971 
